PathFileType	4	(X/Y/Z)	10_1_48_p1_0-565_filt_butterworth.trc
DataRate	CameraRate	NumFrames	NumMarkers	Units	OrigDataRate	OrigDataStartFrame	OrigNumFrames
59.0	59.0	5	27	m	59.0	141	565
Frame#	Time	RHip			RKnee			RAnkle			RBigToe			RSmallToe			RHeel			LHip			LKnee			LAnkle			LBigToe			LSmallToe			LHeel			Neck			Head			Nose			RShoulder			RElbow			RWrist			RThumb			RIndex			RPinky			LShoulder			LElbow			LWrist			LThumb			LIndex			LPinky			
		X1	Y1	Z1	X2	Y2	Z2	X3	Y3	Z3	X4	Y4	Z4	X5	Y5	Z5	X6	Y6	Z6	X7	Y7	Z7	X8	Y8	Z8	X9	Y9	Z9	X10	Y10	Z10	X11	Y11	Z11	X12	Y12	Z12	X13	Y13	Z13	X14	Y14	Z14	X15	Y15	Z15	X16	Y16	Z16	X17	Y17	Z17	X18	Y18	Z18	X19	Y19	Z19	X20	Y20	Z20	X21	Y21	Z21	X22	Y22	Z22	X23	Y23	Z23	X24	Y24	Z24	X25	Y25	Z25	X26	Y26	Z26	X27	Y27	Z27	
141	2.389830508474576	0.32548289675567565	0.5028517611888372	0.9656971998603026	0.3201588813347928	0.656689516417044	1.396364837895434	0.3112680370495333	0.7850365180776612	1.7811833571000522	0.2796279100649447	0.609866248582352	1.8665976378808755	0.35461940143846277	0.6301249973362847	1.8563614466843674	0.26764098972855743	0.8767001647443768	1.8480040377189	0.09898266534825721	0.5234408983069181	0.9711740716405413	0.0789302915194213	0.6288803870087141	1.3792957583325156	0.07932900591388939	0.73762770880096	1.7376225381320345	0.10928797007552746	0.6130888310960173	1.881546290686285	0.056941742544871304	0.6175332406882317	1.8434960147240034	0.09318473560000008	0.7820285501472716	1.7722137104742401	0.21377711223942897	0.382373198367641	0.4316435826198138	0.21615551185235127	0.308993308825502	0.20340069211547626	0.22476331022908722	0.28246912888634146	0.3177379501667348	0.3770694848767664	0.43481874919142544	0.5463406433973246	0.4228476819411542	0.47792549850332083	0.8218529169404772	0.4291701370321709	0.4966150589939078	1.063751121117542	0.3758928627211404	0.4899928083646284	1.1703053608207126	0.3968256796885796	0.46965886818154395	1.181771649350068	0.43803957212021266	0.5290448663353422	1.1732653269846045	0.04987996786800497	0.42627714023594754	0.5383585139255308	-0.012511788074342941	0.493805734440241	0.8249669195398117	-0.0011732642613649074	0.4728958258761985	1.0611627466808542	0.04297362261511778	0.45618924572315545	1.1366044482886535	0.01847985431813983	0.45607362439643184	1.1861973081788835	-0.024346205583749968	0.5191735916469076	1.189744896476649
142	2.406779661016949	0.32438183990303904	0.5026150774430259	0.9649108566850206	0.32020381725849134	0.6562210223219869	1.396003622922195	0.31131308914872163	0.7850365400442528	1.7811641352496341	0.2795048352229105	0.6100341698483485	1.8670167241735376	0.3546844757293182	0.6303721891481117	1.856387460659543	0.2676004392330599	0.8768405177187829	1.8478120876175501	0.09908341659679784	0.5234679268250515	0.9701191131971166	0.07895624945899773	0.6289369245029642	1.3794076594638462	0.07929671350342427	0.73828800094776	1.7382043091393156	0.1111555861283651	0.6087727046176641	1.8794945383512172	0.05652937087254449	0.6179926477432653	1.8448756479096928	0.09333119424120197	0.778119909369655	1.7710603234362279	0.21376635877916247	0.3823709662744674	0.43162865223950947	0.2161481799572801	0.3089912235118475	0.20339283036757658	0.22475355453730175	0.28246421715430153	0.31774305966410943	0.37707353247452186	0.4350083882310892	0.5463135169436549	0.42274837624050965	0.47813415828799577	0.8220100593213978	0.42908552718646376	0.4962944267061171	1.0637045999061137	0.3744380618624791	0.48952485011870367	1.170297659900883	0.3968066308733113	0.4696746755492452	1.1818153138371537	0.4382224639762403	0.5286332037285462	1.1745188452803415	0.04987670554696462	0.4262757699682426	0.5383121867445327	-0.012978347363708204	0.4937489952720858	0.8238540883810275	-0.0025020363018521236	0.47215947793885643	1.0610931550734355	0.043190061390974664	0.4559262687913804	1.1384776646370849	0.018469854262805417	0.456188552347036	1.1862644639676738	-0.02439615655596167	0.5192838650251268	1.189857085254711
143	2.4237288135593222	0.32293446816568777	0.5025643878159765	0.9628416427231395	0.3198592923527201	0.6557411039730944	1.3958850622327017	0.3113865643159607	0.7849400524671166	1.7815219586502213	0.27922885386711355	0.6105543882009721	1.868239786208174	0.35474038795729246	0.6307041731049683	1.85697059054591	0.26766342470066573	0.8768171754460985	1.8488218885066074	0.09909367682646443	0.5235622510466521	0.9684141617449118	0.07897686941485099	0.6289202758852331	1.3793347042600697	0.07932463867085397	0.7389474334527814	1.739617542906015	0.11420245265510327	0.6055279229692875	1.8777396997213445	0.055530244138253984	0.6181746917810897	1.845491004468945	0.09359808138008668	0.7758873812660716	1.7731870465931572	0.2137709645593403	0.3823708058750195	0.4316092130009488	0.21613664440230382	0.30899103617076706	0.20338321551535518	0.22474210230420744	0.28245558295632156	0.3177439974834933	0.37734975610667054	0.43626772212881365	0.5462381046804292	0.4226836560217397	0.4777603353544877	0.8225433954085822	0.4290324526545389	0.4960885590762478	1.0636664945019205	0.37334594518460934	0.48918060019375414	1.1702655666146011	0.39683196528445114	0.4700304300600529	1.181810256437331	0.43797048557310836	0.5302266947593692	1.1758152712431633	0.0499213819589359	0.4261703217568956	0.5378478218165677	-0.013019457079094054	0.4935242510533495	0.8233339918480036	-0.003464169249987789	0.47148525646671435	1.0611036900175135	0.04332347905785275	0.4557655167724587	1.1396817053180497	0.018463985744345823	0.4562956520201627	1.1863326508989094	-0.02440268648754029	0.5194396244668061	1.1900023516800957
144	2.440677966101695	0.32171107989517184	0.5023175469692557	0.9600822811115994	0.31928979856015466	0.6553184189805585	1.395846738029644	0.31143893743076045	0.7847301649687449	1.7825067059962318	0.27888225682749446	0.6112659613914382	1.86991297507116	0.35475875167806403	0.6311516942621652	1.8583927803233373	0.2679275041670436	0.8772089139074303	1.8506158156475285	0.09893395713342074	0.52362627157501	0.966783010719789	0.07893308584156285	0.6286042675199199	1.3786969824959072	0.07961891290959133	0.7381814805282438	1.7413583223330618	0.1177839571143917	0.6030121951756727	1.8762949995297327	0.05391888745327351	0.6178666213710924	1.845434517192258	0.09387034799218645	0.7789894066637416	1.7798669223699373	0.2137862379322239	0.38236915631084184	0.4315836647143176	0.21612422596493341	0.3089929185963515	0.20337261860141664	0.22473042018041073	0.2824457441436408	0.31773898132896494	0.378086069737099	0.43941429919298036	0.5460802354586076	0.42262257030703093	0.4775115955249435	0.8236369879102733	0.429038764047271	0.4960152628321103	1.063669609524549	0.3729305791924036	0.4890403577104895	1.1702263258682217	0.3968395540315716	0.4702524774559337	1.1817576527798515	0.4370064404562654	0.5347714579095474	1.1773696967879916	0.050026826506199495	0.4259192001237996	0.5367795318668344	-0.012942983544358494	0.4933418776499333	0.8238427670835443	-0.003791213689850724	0.47109800763724874	1.0614828944631165	0.043302980024411394	0.45573215082611107	1.139511090923696	0.018460177625808642	0.45635967246615083	1.1863476514319955	-0.024299596233749957	0.5194864001965727	1.1900884764203108
145	2.457627118644068	0.32100882669359093	0.5015724186723889	0.9579729347721073	0.31883451889867986	0.6550206353010617	1.3958285011515592	0.31137378145912004	0.7845998472487302	1.783913345670255	0.2786306276083991	0.6117668232906386	1.871189661436382	0.3546874847482087	0.631589530435442	1.860173358438945	0.26854050150967873	0.8783542566573664	1.8524426386356836	0.09858705338332913	0.5234215829344302	0.9657246332674749	0.07876862453180439	0.6278286283719124	1.377277583539317	0.08046894378639631	0.7347784381344766	1.7424433814199571	0.1202118591444991	0.5992815871304976	1.8745584453080075	0.0524760556834406	0.6173683180946873	1.8451662102050843	0.09399284992738832	0.785810377906361	1.787504674957084	0.2137989585814527	0.38236476509035966	0.43155710265296504	0.2161184057116337	0.3089953789525588	0.20336546335253897	0.22472994309843222	0.2824383398180773	0.3177306604664783	0.3790745647442205	0.44366923467289504	0.5458790212405507	0.4226118035575953	0.477660199808823	0.8250241884698782	0.42911187464428235	0.4960024856950356	1.0637294581239378	0.3729391115361044	0.48899452475415195	1.170199327022964	0.396835807057205	0.47018863007119444	1.1816646173676415	0.4356244326596214	0.5405272795599654	1.178702453455111	0.050154873941910205	0.4256116166185213	0.5354184499434217	-0.012936675109220967	0.4933671035248279	0.8249545200566151	-0.003736638559351341	0.4709847484837473	1.0624784177388358	0.04320744087568384	0.45575747749304635	1.1386362063674327	0.018452542490646626	0.45628657854466914	1.1863015025953751	-0.024107490024382647	0.5191883965610684	1.190062678037108
